<svg width="84" height="57" viewBox="0 0 84 57" fill="none" xmlns="http://www.w3.org/2000/svg">
<path d="M8.31 25.47C8.15 25.47 8.02 25.44 7.92 25.38C7.82 25.34 7.78 25.24 7.8 25.08C7.8 25.02 7.83 24.93 7.89 24.81C7.95 24.69 7.99 24.6 8.01 24.54C8.11 24.26 8.2 23.98 8.28 23.7C8.36 23.4 8.44 23.12 8.52 22.86C8.8 21.76 9.06 20.67 9.3 19.59C9.54 18.49 9.73 17.39 9.87 16.29C9.91 16.01 9.94 15.69 9.96 15.33C9.98 14.95 9.99 14.55 9.99 14.13C9.99 13.17 9.89 12.15 9.69 11.07C9.49 9.99 9.1 9.11 8.52 8.43H6.24C5.94 8.43 5.52 8.45 4.98 8.49C4.46 8.53 3.92 8.62 3.36 8.76C2.82 8.9 2.37 9.13 2.01 9.45C1.65 9.77 1.49 10.2 1.53 10.74C1.55 10.9 1.61 11.12 1.71 11.4C1.81 11.66 1.88 11.82 1.92 11.88L1.59 12.12C1.47 11.9 1.32 11.65 1.14 11.37C0.96 11.07 0.8 10.78 0.66 10.5C0.52 10.22 0.44 10.01 0.42 9.87C0.4 9.67 0.41 9.41 0.45 9.09C0.49 8.77 0.65 8.49 0.93 8.25C1.23 7.99 1.64 7.82 2.16 7.74C2.7 7.66 3.25 7.62 3.81 7.62C4.35 7.62 4.87 7.64 5.37 7.68C5.87 7.72 6.28 7.74 6.6 7.74C6.6 7.74 6.83 7.74 7.29 7.74C7.75 7.74 8.33 7.74 9.03 7.74C9.75 7.72 10.51 7.71 11.31 7.71C12.11 7.71 12.84 7.71 13.5 7.71L12.87 8.49C12.27 8.49 11.67 8.49 11.07 8.49C10.49 8.47 9.9 8.46 9.3 8.46C9.94 8.88 10.41 9.43 10.71 10.11C11.03 10.79 11.24 11.5 11.34 12.24C11.44 12.98 11.49 13.67 11.49 14.31C11.49 14.57 11.48 14.82 11.46 15.06C11.46 15.3 11.46 15.51 11.46 15.69C11.42 16.63 11.29 17.76 11.07 19.08C10.85 20.4 10.57 21.65 10.23 22.83C10.89 21.91 11.63 20.82 12.45 19.56C13.29 18.28 14.23 16.94 15.27 15.54C16.33 14.12 17.48 12.75 18.72 11.43C19.22 10.91 19.75 10.38 20.31 9.84C20.87 9.3 21.47 8.85 22.11 8.49C22.75 8.13 23.44 7.95 24.18 7.95C24.82 7.95 25.31 8.05 25.65 8.25L25.47 8.58C25.39 8.56 25.31 8.55 25.23 8.55C25.17 8.53 25.09 8.52 24.99 8.52C24.43 8.52 23.83 8.69 23.19 9.03C22.57 9.37 22.09 9.71 21.75 10.05C21.13 10.67 20.65 11.41 20.31 12.27C19.97 13.11 19.72 14.01 19.56 14.97C19.42 15.91 19.31 16.87 19.23 17.85C19.15 18.81 19.07 19.72 18.99 20.58C18.93 21.44 18.81 22.19 18.63 22.83C19.45 21.67 20.46 20.29 21.66 18.69C22.88 17.09 24.27 15.43 25.83 13.71C27.39 11.97 29.1 10.32 30.96 8.76C31.34 8.44 31.83 8.08 32.43 7.68C33.05 7.28 33.7 6.94 34.38 6.66C35.08 6.36 35.74 6.21 36.36 6.21C36.94 6.21 37.34 6.31 37.56 6.51C37.8 6.71 37.92 6.97 37.92 7.29C37.92 7.67 37.8 8.09 37.56 8.55C37.34 9.01 37.17 9.39 37.05 9.69C37.03 9.75 36.94 9.79 36.78 9.81C36.62 9.83 36.55 9.8 36.57 9.72C36.61 9.56 36.65 9.37 36.69 9.15C36.75 8.91 36.78 8.67 36.78 8.43C36.78 8.11 36.72 7.82 36.6 7.56C36.48 7.3 36.25 7.15 35.91 7.11C35.85 7.09 35.79 7.08 35.73 7.08C35.67 7.08 35.61 7.08 35.55 7.08C34.99 7.08 34.38 7.28 33.72 7.68C33.06 8.06 32.3 8.6 31.44 9.3C29.76 10.64 28.15 12.12 26.61 13.74C25.07 15.34 23.61 17.02 22.23 18.78C21.51 19.68 20.81 20.59 20.13 21.51C19.45 22.43 18.82 23.39 18.24 24.39C18.2 24.47 18.16 24.56 18.12 24.66C18.1 24.78 18.07 24.87 18.03 24.93C17.99 24.97 17.87 25.03 17.67 25.11C17.47 25.21 17.27 25.29 17.07 25.35C16.89 25.43 16.77 25.47 16.71 25.47C16.55 25.47 16.42 25.44 16.32 25.38C16.22 25.34 16.18 25.24 16.2 25.08C16.2 25.02 16.23 24.93 16.29 24.81C16.35 24.69 16.39 24.6 16.41 24.54C16.51 24.26 16.6 23.98 16.68 23.7C16.76 23.4 16.84 23.12 16.92 22.86C17.16 21.98 17.33 21.05 17.43 20.07C17.55 19.09 17.66 18.11 17.76 17.13C17.88 16.13 18.06 15.17 18.3 14.25C18.54 13.33 18.91 12.5 19.41 11.76C19.01 12 18.44 12.59 17.7 13.53C16.96 14.45 16.06 15.57 15 16.89C14.64 17.33 14.24 17.88 13.8 18.54C13.36 19.18 12.91 19.86 12.45 20.58C12.01 21.28 11.58 21.97 11.16 22.65C10.76 23.31 10.42 23.89 10.14 24.39C10.1 24.47 10.06 24.56 10.02 24.66C10 24.78 9.97 24.87 9.93 24.93C9.89 24.97 9.74 25.03 9.48 25.11C9.24 25.21 9 25.29 8.76 25.35C8.52 25.43 8.37 25.47 8.31 25.47ZM34.008 12.54C33.728 12.54 33.528 12.45 33.408 12.27C33.328 12.17 33.288 12.04 33.288 11.88C33.288 11.56 33.438 11.3 33.738 11.1C33.958 10.98 34.158 10.92 34.338 10.92C34.638 10.92 34.848 11.01 34.968 11.19C35.048 11.29 35.088 11.42 35.088 11.58C35.088 11.9 34.928 12.16 34.608 12.36C34.428 12.48 34.228 12.54 34.008 12.54ZM28.788 24.09C28.588 24.09 28.418 24.05 28.278 23.97C28.158 23.89 28.098 23.74 28.098 23.52C28.098 23.24 28.168 22.91 28.308 22.53C28.468 22.15 28.638 21.77 28.818 21.39C29.018 21.01 29.168 20.7 29.268 20.46C29.408 20.18 29.578 19.82 29.778 19.38C29.998 18.92 30.198 18.49 30.378 18.09C30.578 17.67 30.718 17.38 30.798 17.22C30.518 17.52 30.178 17.9 29.778 18.36C29.398 18.8 29.038 19.23 28.698 19.65C28.358 20.07 28.098 20.4 27.918 20.64C27.858 20.72 27.808 20.76 27.768 20.76C27.728 20.76 27.708 20.71 27.708 20.61C27.708 20.45 27.758 20.3 27.858 20.16C28.238 19.68 28.658 19.14 29.118 18.54C29.598 17.94 30.028 17.39 30.408 16.89C30.788 16.37 31.028 16.03 31.128 15.87C31.348 15.83 31.668 15.77 32.088 15.69C32.528 15.61 32.828 15.5 32.988 15.36C33.048 15.3 33.108 15.27 33.168 15.27C33.208 15.27 33.228 15.31 33.228 15.39C33.248 15.45 33.228 15.52 33.168 15.6C33.048 15.74 32.838 16.08 32.538 16.62C32.238 17.16 31.918 17.76 31.578 18.42C31.258 19.06 30.958 19.64 30.678 20.16C30.398 20.7 30.158 21.22 29.958 21.72C29.758 22.22 29.658 22.58 29.658 22.8C29.658 23.08 29.798 23.22 30.078 23.22C30.338 23.22 30.668 23.06 31.068 22.74C31.488 22.42 31.908 22.04 32.328 21.6C32.748 21.14 33.118 20.72 33.438 20.34C33.538 20.22 33.658 20.08 33.798 19.92C33.958 19.74 34.058 19.63 34.098 19.59C34.138 19.63 34.158 19.7 34.158 19.8C34.138 19.94 34.088 20.08 34.008 20.22C33.928 20.34 33.848 20.45 33.768 20.55C33.348 21.07 32.888 21.61 32.388 22.17C31.888 22.71 31.338 23.17 30.738 23.55C30.138 23.91 29.488 24.09 28.788 24.09ZM35.3395 24.48C34.9795 24.48 34.5995 24.43 34.1995 24.33C33.7995 24.23 33.4395 24.07 33.1195 23.85C32.8195 23.61 32.6195 23.29 32.5195 22.89C32.4995 22.83 32.4895 22.74 32.4895 22.62C32.4895 22.34 32.5495 22.03 32.6695 21.69C32.8095 21.35 32.9795 21.11 33.1795 20.97C33.2595 20.93 33.3195 20.93 33.3595 20.97C33.4195 21.01 33.4295 21.05 33.3895 21.09C33.3695 21.15 33.3395 21.23 33.2995 21.33C33.2595 21.41 33.2295 21.5 33.2095 21.6C33.1495 22.12 33.2595 22.58 33.5395 22.98C33.6595 23.14 33.7995 23.29 33.9595 23.43C34.1395 23.57 34.3095 23.69 34.4695 23.79C34.6095 23.87 34.7795 23.93 34.9795 23.97C35.1795 23.99 35.3795 24 35.5795 24C35.8995 24 36.2095 23.96 36.5095 23.88C36.8095 23.8 37.0295 23.67 37.1695 23.49C37.4295 23.17 37.5595 22.81 37.5595 22.41C37.5595 22.11 37.4795 21.79 37.3195 21.45C37.1595 21.11 36.9095 20.75 36.5695 20.37C36.3495 20.13 36.1395 19.87 35.9395 19.59C35.7395 19.31 35.6095 19.01 35.5495 18.69C35.5295 18.63 35.5095 18.57 35.4895 18.51C35.4895 18.45 35.4895 18.39 35.4895 18.33C35.2295 18.71 34.9595 19.07 34.6795 19.41C34.4195 19.73 34.1895 20.01 33.9895 20.25C33.9095 20.37 33.8395 20.43 33.7795 20.43C33.7395 20.43 33.7195 20.39 33.7195 20.31C33.7195 20.13 33.7995 19.94 33.9595 19.74C34.1195 19.56 34.2995 19.34 34.4995 19.08C34.6995 18.8 34.8595 18.58 34.9795 18.42C35.3195 17.92 35.5695 17.53 35.7295 17.25C35.9095 16.95 36.0995 16.68 36.2995 16.44C36.5195 16.18 36.7895 15.97 37.1095 15.81C37.4495 15.65 37.7995 15.57 38.1595 15.57C38.5795 15.57 38.9595 15.64 39.2995 15.78C39.6595 15.9 39.8495 16.22 39.8695 16.74C39.8695 16.98 39.8195 17.23 39.7195 17.49C39.6395 17.73 39.5495 17.96 39.4495 18.18C39.3895 18.3 39.2995 18.39 39.1795 18.45C39.0795 18.49 39.0295 18.47 39.0295 18.39C39.0295 18.31 39.0395 18.22 39.0595 18.12C39.0795 18.02 39.0895 17.93 39.0895 17.85C39.0895 17.51 39.0295 17.21 38.9095 16.95C38.8095 16.67 38.6595 16.47 38.4595 16.35C38.2595 16.21 38.0495 16.14 37.8295 16.14C37.5095 16.14 37.1995 16.27 36.8995 16.53C36.5995 16.77 36.4495 17.09 36.4495 17.49C36.4495 17.53 36.4495 17.58 36.4495 17.64C36.4495 17.7 36.4595 17.75 36.4795 17.79C36.5595 18.11 36.7995 18.47 37.1995 18.87C37.5995 19.27 37.9095 19.62 38.1295 19.92C38.5095 20.44 38.6995 20.97 38.6995 21.51C38.6995 22.05 38.5395 22.55 38.2195 23.01C37.9195 23.45 37.5095 23.8 36.9895 24.06C36.4895 24.34 35.9395 24.48 35.3395 24.48ZM44.5922 24.09C44.3922 24.09 44.2222 24.05 44.0822 23.97C43.9422 23.89 43.8722 23.74 43.8722 23.52C43.8722 23.24 43.9422 22.92 44.0822 22.56C44.2222 22.2 44.3822 21.85 44.5622 21.51C44.7422 21.15 44.9022 20.86 45.0422 20.64C44.3422 21.38 43.6122 22.08 42.8522 22.74C42.4722 23.06 42.0522 23.36 41.5922 23.64C41.1322 23.92 40.6422 24.06 40.1222 24.06C39.9222 24.06 39.7822 24 39.7022 23.88C39.6222 23.74 39.5822 23.58 39.5822 23.4C39.5822 23.3 39.5922 23.23 39.6122 23.19C39.7122 22.41 39.9622 21.6 40.3622 20.76C40.7622 19.92 41.2522 19.13 41.8322 18.39C42.4122 17.65 43.0022 17.05 43.6022 16.59C44.2822 16.07 45.0322 15.81 45.8522 15.81H49.3022C49.4022 15.81 49.4522 15.85 49.4522 15.93C49.4522 16.09 49.3622 16.17 49.1822 16.17C48.9822 16.17 48.7822 16.3 48.5822 16.56C48.3822 16.8 48.2322 17 48.1322 17.16C47.9922 17.38 47.7722 17.75 47.4722 18.27C47.1722 18.79 46.8622 19.36 46.5422 19.98C46.2422 20.58 45.9822 21.14 45.7622 21.66C45.5422 22.18 45.4322 22.56 45.4322 22.8C45.4322 23.08 45.5722 23.22 45.8522 23.22C46.1522 23.22 46.4922 23.08 46.8722 22.8C47.2522 22.52 47.6322 22.18 48.0122 21.78C48.4122 21.36 48.7722 20.95 49.0922 20.55C49.4322 20.13 49.7022 19.8 49.9022 19.56C50.0222 19.68 50.0122 19.85 49.8722 20.07C49.7522 20.27 49.6422 20.43 49.5422 20.55C49.1422 21.07 48.6822 21.61 48.1622 22.17C47.6422 22.71 47.0722 23.17 46.4522 23.55C45.8522 23.91 45.2322 24.09 44.5922 24.09ZM41.3522 23.04C41.5922 23.04 41.9222 22.87 42.3422 22.53C42.7822 22.17 43.2522 21.73 43.7522 21.21C44.2522 20.67 44.7222 20.11 45.1622 19.53C45.6022 18.93 45.9622 18.39 46.2422 17.91C46.5422 17.41 46.6922 17.03 46.6922 16.77C46.6922 16.55 46.6222 16.4 46.4822 16.32C46.3622 16.24 46.2022 16.2 46.0022 16.2C45.6822 16.2 45.3322 16.32 44.9522 16.56C44.5922 16.78 44.3022 17 44.0822 17.22C43.8422 17.44 43.5522 17.79 43.2122 18.27C42.8922 18.73 42.5722 19.24 42.2522 19.8C41.9322 20.36 41.6622 20.9 41.4422 21.42C41.2222 21.94 41.1122 22.36 41.1122 22.68C41.1122 22.92 41.1922 23.04 41.3522 23.04ZM50.5305 24.09C50.3305 24.09 50.1605 24.05 50.0205 23.97C49.8805 23.89 49.8105 23.74 49.8105 23.52C49.8105 23.24 49.8805 22.91 50.0205 22.53C50.1805 22.15 50.3505 21.77 50.5305 21.39C50.7105 21.01 50.8605 20.7 50.9805 20.46C51.0805 20.28 51.2105 20 51.3705 19.62C51.5505 19.22 51.7305 18.81 51.9105 18.39C52.1105 17.95 52.2705 17.58 52.3905 17.28C52.5305 16.98 52.6005 16.83 52.6005 16.83C52.4205 17.03 52.1805 17.31 51.8805 17.67C51.6005 18.03 51.2905 18.41 50.9505 18.81C50.6305 19.19 50.3305 19.55 50.0505 19.89C49.7905 20.23 49.6005 20.48 49.4805 20.64C49.4205 20.72 49.3705 20.76 49.3305 20.76C49.2905 20.76 49.2705 20.71 49.2705 20.61C49.2705 20.45 49.3205 20.3 49.4205 20.16C49.6605 19.86 49.9505 19.5 50.2905 19.08C50.6305 18.64 50.9705 18.2 51.3105 17.76C51.6705 17.32 51.9805 16.93 52.2405 16.59C52.0805 16.59 51.8705 16.6 51.6105 16.62C51.3705 16.64 51.1505 16.67 50.9505 16.71C50.7505 16.73 50.6405 16.74 50.6205 16.74C50.5205 16.74 50.5305 16.66 50.6505 16.5C50.7705 16.34 50.9305 16.18 51.1305 16.02C51.3305 15.86 51.4805 15.78 51.5805 15.78C51.6005 15.78 51.7605 15.79 52.0605 15.81C52.3605 15.81 52.5805 15.81 52.7205 15.81C53.1205 15.27 53.5105 14.65 53.8905 13.95C54.2905 13.25 54.6805 12.48 55.0605 11.64C55.2205 11.62 55.4905 11.51 55.8705 11.31C56.2705 11.09 56.5805 10.87 56.8005 10.65C56.9005 10.55 56.9805 10.5 57.0405 10.5C57.1605 10.5 57.1605 10.58 57.0405 10.74C56.9005 10.9 56.6605 11.24 56.3205 11.76C55.9805 12.26 55.6005 12.87 55.1805 13.59C54.7605 14.29 54.3605 15.03 53.9805 15.81H56.4105C56.6305 15.81 56.7405 15.84 56.7405 15.9C56.7405 15.98 56.5905 16.06 56.2905 16.14C55.9505 16.24 55.5905 16.3 55.2105 16.32C54.8505 16.34 54.5105 16.38 54.1905 16.44C53.8905 16.5 53.6705 16.63 53.5305 16.83C53.4105 16.97 53.2405 17.27 53.0205 17.73C52.8005 18.19 52.5605 18.72 52.3005 19.32C52.0605 19.9 51.8505 20.49 51.6705 21.09C51.4905 21.67 51.3805 22.16 51.3405 22.56V22.68C51.3405 22.84 51.3905 22.97 51.4905 23.07C51.5905 23.17 51.6905 23.22 51.7905 23.22C52.0505 23.22 52.3805 23.06 52.7805 22.74C53.2005 22.42 53.6305 22.04 54.0705 21.6C54.5105 21.14 54.8905 20.72 55.2105 20.34C55.3505 20.18 55.4705 20.03 55.5705 19.89C55.6905 19.75 55.7605 19.66 55.7805 19.62C55.8205 19.7 55.8405 19.76 55.8405 19.8C55.8405 19.92 55.8005 20.05 55.7205 20.19C55.6605 20.33 55.5905 20.45 55.5105 20.55C55.1305 21.05 54.6705 21.58 54.1305 22.14C53.5905 22.68 53.0105 23.14 52.3905 23.52C51.7905 23.9 51.1705 24.09 50.5305 24.09ZM59.3578 24.09C59.1578 24.09 58.9878 24.05 58.8478 23.97C58.7078 23.89 58.6378 23.74 58.6378 23.52C58.6378 23.24 58.7078 22.92 58.8478 22.56C58.9878 22.2 59.1478 21.85 59.3278 21.51C59.5078 21.15 59.6678 20.86 59.8078 20.64C59.1078 21.38 58.3778 22.08 57.6178 22.74C57.2378 23.06 56.8178 23.36 56.3578 23.64C55.8978 23.92 55.4078 24.06 54.8878 24.06C54.6878 24.06 54.5478 24 54.4678 23.88C54.3878 23.74 54.3478 23.58 54.3478 23.4C54.3478 23.3 54.3578 23.23 54.3778 23.19C54.4778 22.41 54.7278 21.6 55.1278 20.76C55.5278 19.92 56.0178 19.13 56.5978 18.39C57.1778 17.65 57.7678 17.05 58.3678 16.59C59.0478 16.07 59.7978 15.81 60.6178 15.81H64.0678C64.1678 15.81 64.2178 15.85 64.2178 15.93C64.2178 16.09 64.1278 16.17 63.9478 16.17C63.7478 16.17 63.5478 16.3 63.3478 16.56C63.1478 16.8 62.9978 17 62.8978 17.16C62.7578 17.38 62.5378 17.75 62.2378 18.27C61.9378 18.79 61.6278 19.36 61.3078 19.98C61.0078 20.58 60.7478 21.14 60.5278 21.66C60.3078 22.18 60.1978 22.56 60.1978 22.8C60.1978 23.08 60.3378 23.22 60.6178 23.22C60.9178 23.22 61.2578 23.08 61.6378 22.8C62.0178 22.52 62.3978 22.18 62.7778 21.78C63.1778 21.36 63.5378 20.95 63.8578 20.55C64.1978 20.13 64.4678 19.8 64.6678 19.56C64.7878 19.68 64.7778 19.85 64.6378 20.07C64.5178 20.27 64.4078 20.43 64.3078 20.55C63.9078 21.07 63.4478 21.61 62.9278 22.17C62.4078 22.71 61.8378 23.17 61.2178 23.55C60.6178 23.91 59.9978 24.09 59.3578 24.09ZM56.1178 23.04C56.3578 23.04 56.6878 22.87 57.1078 22.53C57.5478 22.17 58.0178 21.73 58.5178 21.21C59.0178 20.67 59.4878 20.11 59.9278 19.53C60.3678 18.93 60.7278 18.39 61.0078 17.91C61.3078 17.41 61.4578 17.03 61.4578 16.77C61.4578 16.55 61.3878 16.4 61.2478 16.32C61.1278 16.24 60.9678 16.2 60.7678 16.2C60.4478 16.2 60.0978 16.32 59.7178 16.56C59.3578 16.78 59.0678 17 58.8478 17.22C58.6078 17.44 58.3178 17.79 57.9778 18.27C57.6578 18.73 57.3378 19.24 57.0178 19.8C56.6978 20.36 56.4278 20.9 56.2078 21.42C55.9878 21.94 55.8778 22.36 55.8778 22.68C55.8778 22.92 55.9578 23.04 56.1178 23.04Z" fill="#3D813B"/>
<path d="M23.48 45.3C22.86 45.3 22.27 45.13 21.71 44.79C21.15 44.43 20.73 43.89 20.45 43.17C20.35 42.91 20.28 42.64 20.24 42.36C20.2 42.06 20.18 41.77 20.18 41.49C20.18 41.21 20.23 41.07 20.33 41.07C20.45 41.07 20.51 41.15 20.51 41.31C20.51 42.25 20.74 42.96 21.2 43.44C21.68 43.92 22.27 44.16 22.97 44.16C23.67 44.16 24.34 43.96 24.98 43.56C25.64 43.16 26.25 42.65 26.81 42.03C27.73 41.03 28.51 40.02 29.15 39C29.79 37.96 30.37 36.9 30.89 35.82C31.43 34.72 31.97 33.58 32.51 32.4C32.85 31.68 33.27 31.05 33.77 30.51C34.29 29.97 34.91 29.6 35.63 29.4L35.66 29.37H34.01C33.31 29.37 32.57 29.4 31.79 29.46C31.01 29.52 30.3 29.65 29.66 29.85C29.04 30.05 28.59 30.35 28.31 30.75C28.13 31.01 28.04 31.31 28.04 31.65C28.04 31.99 28.13 32.32 28.31 32.64C28.49 32.96 28.72 33.19 29 33.33C29.04 33.37 29.06 33.4 29.06 33.42C29.06 33.46 29.01 33.51 28.91 33.57C28.83 33.61 28.74 33.62 28.64 33.6C28.48 33.5 28.28 33.34 28.04 33.12C27.8 32.88 27.58 32.63 27.38 32.37C27.2 32.11 27.08 31.89 27.02 31.71C26.94 31.47 26.9 31.23 26.9 30.99C26.9 30.51 27.07 30.12 27.41 29.82C27.77 29.52 28.23 29.29 28.79 29.13C29.35 28.97 29.95 28.86 30.59 28.8C31.25 28.72 31.88 28.68 32.48 28.68C33.1 28.66 33.63 28.65 34.07 28.65H37.31C37.35 28.65 37.37 28.66 37.37 28.68C37.37 28.74 37.3 28.83 37.16 28.95C37.04 29.05 36.96 29.1 36.92 29.1C36.42 29.2 36.05 29.47 35.81 29.91C35.57 30.33 35.46 31.01 35.48 31.95C35.48 31.95 35.48 32.17 35.48 32.61C35.5 33.05 35.52 33.62 35.54 34.32C35.56 35.02 35.58 35.77 35.6 36.57C35.62 37.37 35.64 38.14 35.66 38.88C35.68 39.62 35.7 40.24 35.72 40.74V40.92L46.13 29.94C46.79 29.24 47.44 28.65 48.08 28.17C48.74 27.67 49.42 27.45 50.12 27.51C50.14 27.51 50.15 27.52 50.15 27.54C50.17 27.54 50.18 27.54 50.18 27.54C50.18 27.6 50.14 27.67 50.06 27.75C49.98 27.83 49.89 27.88 49.79 27.9C49.27 27.88 48.8 28.08 48.38 28.5C47.96 28.92 47.57 29.42 47.21 30C47.03 30.3 46.76 30.78 46.4 31.44C46.04 32.08 45.63 32.84 45.17 33.72C44.73 34.6 44.28 35.53 43.82 36.51C43.36 37.49 42.93 38.45 42.53 39.39C42.15 40.33 41.84 41.19 41.6 41.97C41.36 42.73 41.24 43.35 41.24 43.83C41.24 44.39 41.43 44.67 41.81 44.67C41.97 44.67 42.14 44.63 42.32 44.55C42.58 44.45 42.87 44.3 43.19 44.1C43.51 43.9 43.8 43.67 44.06 43.41C44.58 42.91 45.04 42.4 45.44 41.88C45.84 41.34 46.08 41.03 46.16 40.95C46.22 40.87 46.27 40.83 46.31 40.83C46.39 40.83 46.43 40.89 46.43 41.01C46.43 41.13 46.39 41.24 46.31 41.34C46.15 41.54 45.88 41.89 45.5 42.39C45.12 42.87 44.67 43.36 44.15 43.86C43.65 44.36 43.11 44.74 42.53 45C42.35 45.08 42.16 45.14 41.96 45.18C41.76 45.24 41.56 45.27 41.36 45.27C40.92 45.27 40.52 45.14 40.16 44.88C39.82 44.6 39.65 44.14 39.65 43.5C39.65 42.88 39.79 42.18 40.07 41.4C40.37 40.6 40.7 39.83 41.06 39.09C41.44 38.33 41.75 37.69 41.99 37.17C42.25 36.63 42.58 35.94 42.98 35.1C43.38 34.26 43.84 33.41 44.36 32.55L35.72 41.67C35.7 41.83 35.63 41.99 35.51 42.15C35.39 42.29 35.2 42.41 34.94 42.51C34.8 42.57 34.61 42.73 34.37 42.99C34.13 43.25 33.97 43.43 33.89 43.53C33.89 43.55 33.86 43.56 33.8 43.56C33.74 43.56 33.68 43.54 33.62 43.5C33.56 43.46 33.54 43.43 33.56 43.41C34.08 42.75 34.35 41.84 34.37 40.68L34.4 39.96C34.44 39.12 34.47 38.24 34.49 37.32C34.51 36.38 34.52 35.51 34.52 34.71C34.54 33.89 34.55 33.23 34.55 32.73C34.55 32.21 34.55 31.95 34.55 31.95C34.55 31.47 34.62 31.05 34.76 30.69C34.9 30.33 35.07 30.02 35.27 29.76C34.93 30.02 34.6 30.33 34.28 30.69C33.96 31.05 33.69 31.45 33.47 31.89C33.17 32.51 32.83 33.31 32.45 34.29C32.07 35.27 31.63 36.31 31.13 37.41C30.65 38.51 30.11 39.59 29.51 40.65C28.93 41.69 28.28 42.59 27.56 43.35C27.06 43.89 26.42 44.35 25.64 44.73C24.88 45.11 24.16 45.3 23.48 45.3ZM52.1623 33.54C51.8823 33.54 51.6823 33.45 51.5623 33.27C51.4823 33.17 51.4423 33.04 51.4423 32.88C51.4423 32.56 51.5923 32.3 51.8923 32.1C52.1123 31.98 52.3123 31.92 52.4923 31.92C52.7923 31.92 53.0023 32.01 53.1223 32.19C53.2023 32.29 53.2423 32.42 53.2423 32.58C53.2423 32.9 53.0823 33.16 52.7623 33.36C52.5823 33.48 52.3823 33.54 52.1623 33.54ZM46.9423 45.09C46.7423 45.09 46.5723 45.05 46.4323 44.97C46.3123 44.89 46.2523 44.74 46.2523 44.52C46.2523 44.24 46.3223 43.91 46.4623 43.53C46.6223 43.15 46.7923 42.77 46.9723 42.39C47.1723 42.01 47.3223 41.7 47.4223 41.46C47.5623 41.18 47.7323 40.82 47.9323 40.38C48.1523 39.92 48.3523 39.49 48.5323 39.09C48.7323 38.67 48.8723 38.38 48.9523 38.22C48.6723 38.52 48.3323 38.9 47.9323 39.36C47.5523 39.8 47.1923 40.23 46.8523 40.65C46.5123 41.07 46.2523 41.4 46.0723 41.64C46.0123 41.72 45.9623 41.76 45.9223 41.76C45.8823 41.76 45.8623 41.71 45.8623 41.61C45.8623 41.45 45.9123 41.3 46.0123 41.16C46.3923 40.68 46.8123 40.14 47.2723 39.54C47.7523 38.94 48.1823 38.39 48.5623 37.89C48.9423 37.37 49.1823 37.03 49.2823 36.87C49.5023 36.83 49.8223 36.77 50.2423 36.69C50.6823 36.61 50.9823 36.5 51.1423 36.36C51.2023 36.3 51.2623 36.27 51.3223 36.27C51.3623 36.27 51.3823 36.31 51.3823 36.39C51.4023 36.45 51.3823 36.52 51.3223 36.6C51.2023 36.74 50.9923 37.08 50.6923 37.62C50.3923 38.16 50.0723 38.76 49.7323 39.42C49.4123 40.06 49.1123 40.64 48.8323 41.16C48.5523 41.7 48.3123 42.22 48.1123 42.72C47.9123 43.22 47.8123 43.58 47.8123 43.8C47.8123 44.08 47.9523 44.22 48.2323 44.22C48.4923 44.22 48.8223 44.06 49.2223 43.74C49.6423 43.42 50.0623 43.04 50.4823 42.6C50.9023 42.14 51.2723 41.72 51.5923 41.34C51.6923 41.22 51.8123 41.08 51.9523 40.92C52.1123 40.74 52.2123 40.63 52.2523 40.59C52.2923 40.63 52.3123 40.7 52.3123 40.8C52.2923 40.94 52.2423 41.08 52.1623 41.22C52.0823 41.34 52.0023 41.45 51.9223 41.55C51.5023 42.07 51.0423 42.61 50.5423 43.17C50.0423 43.71 49.4923 44.17 48.8923 44.55C48.2923 44.91 47.6423 45.09 46.9423 45.09ZM51.8738 45.45C51.7938 45.45 51.7938 45.36 51.8738 45.18C51.9738 45 52.0638 44.8 52.1438 44.58C52.2438 44.36 52.3438 44.12 52.4438 43.86C52.6438 43.38 52.8638 42.84 53.1038 42.24C53.3438 41.64 53.5738 41.06 53.7938 40.5C54.0138 39.92 54.2038 39.43 54.3638 39.03C54.5438 38.61 54.6638 38.34 54.7238 38.22C54.4438 38.52 54.1038 38.9 53.7038 39.36C53.3238 39.8 52.9638 40.23 52.6238 40.65C52.2838 41.07 52.0238 41.4 51.8438 41.64C51.7838 41.72 51.7338 41.76 51.6938 41.76C51.6538 41.76 51.6338 41.71 51.6338 41.61C51.6338 41.45 51.6838 41.3 51.7838 41.16C52.1638 40.68 52.5838 40.14 53.0438 39.54C53.5238 38.94 53.9538 38.39 54.3338 37.89C54.7138 37.37 54.9538 37.03 55.0538 36.87C55.2738 36.83 55.5938 36.77 56.0138 36.69C56.4538 36.61 56.7538 36.5 56.9138 36.36C56.9738 36.3 57.0338 36.27 57.0938 36.27C57.1338 36.27 57.1538 36.31 57.1538 36.39C57.1738 36.45 57.1538 36.52 57.0938 36.6C56.9738 36.74 56.7638 37.07 56.4638 37.59C56.1838 38.09 55.8738 38.65 55.5338 39.27C55.2138 39.89 54.9138 40.45 54.6338 40.95C54.8738 40.63 55.1338 40.32 55.4138 40.02C55.6938 39.72 55.9638 39.43 56.2238 39.15C56.4638 38.91 56.7938 38.61 57.2138 38.25C57.6338 37.89 58.0738 37.56 58.5338 37.26C58.9938 36.96 59.3938 36.79 59.7338 36.75C59.8138 36.73 59.8838 36.72 59.9438 36.72C60.0238 36.72 60.0838 36.72 60.1238 36.72C60.5638 36.72 60.7838 36.88 60.7838 37.2C60.7838 37.44 60.6538 37.76 60.3938 38.16C60.2538 38.38 60.0338 38.75 59.7338 39.27C59.4538 39.77 59.1638 40.32 58.8638 40.92C58.5838 41.5 58.3338 42.05 58.1138 42.57C57.9138 43.07 57.8138 43.44 57.8138 43.68C57.8138 43.96 57.9538 44.1 58.2338 44.1C58.5738 44.1 58.9438 43.93 59.3438 43.59C59.7638 43.25 60.2138 42.82 60.6938 42.3C61.1738 41.76 61.6538 41.19 62.1338 40.59C62.1738 40.63 62.1938 40.7 62.1938 40.8C62.1938 40.94 62.1438 41.08 62.0438 41.22C61.9638 41.34 61.8838 41.45 61.8038 41.55C61.6038 41.81 61.3338 42.14 60.9938 42.54C60.6738 42.92 60.3438 43.3 60.0038 43.68C59.6638 44.04 59.3538 44.33 59.0738 44.55C58.8738 44.69 58.6138 44.84 58.2938 45C57.9738 45.16 57.6538 45.24 57.3338 45.24C56.9738 45.24 56.7238 45.15 56.5838 44.97C56.4438 44.77 56.3738 44.53 56.3738 44.25C56.3738 43.93 56.4338 43.59 56.5538 43.23C56.6738 42.87 56.8038 42.53 56.9438 42.21C57.1038 41.87 57.2238 41.62 57.3038 41.46C57.6638 40.76 57.9938 40.1 58.2938 39.48C58.5938 38.86 58.8038 38.42 58.9238 38.16C58.9838 38.04 59.0138 37.94 59.0138 37.86C59.0138 37.72 58.9038 37.71 58.6838 37.83C58.4638 37.95 58.1938 38.13 57.8738 38.37C57.5738 38.61 57.2938 38.85 57.0338 39.09C56.7738 39.31 56.6038 39.46 56.5238 39.54C55.7838 40.32 55.1338 41.19 54.5738 42.15C54.0338 43.09 53.5738 44.06 53.1938 45.06C52.9338 45.08 52.6738 45.15 52.4138 45.27C52.1538 45.39 51.9738 45.45 51.8738 45.45ZM63.2762 45.09C63.0762 45.09 62.9062 45.05 62.7662 44.97C62.6262 44.89 62.5562 44.74 62.5562 44.52C62.5562 44.24 62.6262 43.91 62.7662 43.53C62.9262 43.15 63.0962 42.77 63.2762 42.39C63.4562 42.01 63.6062 41.7 63.7262 41.46C63.9662 41 64.1962 40.54 64.4162 40.08C64.6362 39.62 64.8262 39.23 64.9862 38.91C65.1462 38.61 65.2262 38.41 65.2262 38.31C65.2262 38.15 65.1062 38.15 64.8662 38.31C64.6462 38.47 64.4362 38.63 64.2362 38.79C63.7962 39.21 63.3362 39.71 62.8562 40.29C62.3762 40.85 62.0062 41.3 61.7462 41.64C61.6862 41.72 61.6362 41.76 61.5962 41.76C61.5562 41.76 61.5362 41.71 61.5362 41.61C61.5362 41.45 61.5862 41.3 61.6862 41.16C61.9662 40.76 62.2962 40.32 62.6762 39.84C63.0562 39.36 63.4462 38.9 63.8462 38.46C64.2262 38.06 64.6162 37.67 65.0162 37.29C65.4162 36.91 65.9262 36.72 66.5462 36.72C66.9662 36.72 67.1762 36.88 67.1762 37.2C67.1762 37.48 67.0562 37.8 66.8162 38.16C66.6762 38.38 66.4562 38.75 66.1562 39.27C65.8562 39.79 65.5462 40.36 65.2262 40.98C64.9262 41.58 64.6662 42.14 64.4462 42.66C64.2262 43.18 64.1162 43.56 64.1162 43.8C64.1162 44.08 64.2562 44.22 64.5362 44.22C64.7562 44.22 65.0262 44.11 65.3462 43.89C65.6662 43.65 65.9962 43.37 66.3362 43.05C66.9562 42.45 67.5162 41.8 68.0162 41.1C68.5362 40.38 68.9762 39.69 69.3362 39.03C69.7162 38.37 70.0162 37.83 70.2362 37.41C70.2762 37.33 70.3162 37.24 70.3562 37.14C70.4162 37.02 70.5062 36.95 70.6262 36.93C70.7462 36.91 71.0062 36.9 71.4062 36.9C71.8062 36.9 72.1762 36.82 72.5162 36.66H72.5762C72.6362 36.66 72.6662 36.69 72.6662 36.75C72.6662 36.91 72.5362 37.03 72.2762 37.11C72.0362 37.19 71.7562 37.43 71.4362 37.83C71.1362 38.23 70.8362 38.72 70.5362 39.3C70.2362 39.86 69.9662 40.44 69.7262 41.04C69.4862 41.64 69.3062 42.19 69.1862 42.69C69.0662 43.19 69.0362 43.56 69.0962 43.8C69.1762 44.08 69.3162 44.22 69.5162 44.22C69.7762 44.22 70.1362 44.06 70.5962 43.74C71.0762 43.42 71.5662 43.04 72.0662 42.6C72.5662 42.14 72.9762 41.72 73.2962 41.34C73.4362 41.18 73.5662 41.02 73.6862 40.86C73.8062 40.7 73.8862 40.6 73.9262 40.56C73.9462 40.58 73.9662 40.62 73.9862 40.68C74.0062 40.72 74.0162 40.76 74.0162 40.8C73.9962 40.94 73.9462 41.08 73.8662 41.22C73.7862 41.34 73.6962 41.45 73.5962 41.55C73.2162 42.05 72.7562 42.58 72.2162 43.14C71.6962 43.68 71.1262 44.14 70.5062 44.52C69.9062 44.9 69.2862 45.09 68.6462 45.09C68.4462 45.09 68.2162 45.04 67.9562 44.94C67.7162 44.84 67.5962 44.62 67.5962 44.28C67.5962 44.02 67.6662 43.67 67.8062 43.23C67.9462 42.77 68.0962 42.32 68.2562 41.88C68.4362 41.42 68.5862 41.08 68.7062 40.86C68.4462 41.24 68.1262 41.67 67.7462 42.15C67.3862 42.61 67.0162 43.02 66.6362 43.38C66.1362 43.86 65.5962 44.27 65.0162 44.61C64.4562 44.93 63.8762 45.09 63.2762 45.09ZM74.5735 45.09C74.3735 45.09 74.2035 45.05 74.0635 44.97C73.9235 44.89 73.8535 44.74 73.8535 44.52C73.8535 44.24 73.9235 43.91 74.0635 43.53C74.2235 43.15 74.3935 42.77 74.5735 42.39C74.7535 42.01 74.9035 41.7 75.0235 41.46C75.1235 41.28 75.2535 41 75.4135 40.62C75.5935 40.22 75.7735 39.81 75.9535 39.39C76.1535 38.95 76.3135 38.58 76.4335 38.28C76.5735 37.98 76.6435 37.83 76.6435 37.83C76.4635 38.03 76.2235 38.31 75.9235 38.67C75.6435 39.03 75.3335 39.41 74.9935 39.81C74.6735 40.19 74.3735 40.55 74.0935 40.89C73.8335 41.23 73.6435 41.48 73.5235 41.64C73.4635 41.72 73.4135 41.76 73.3735 41.76C73.3335 41.76 73.3135 41.71 73.3135 41.61C73.3135 41.45 73.3635 41.3 73.4635 41.16C73.7035 40.86 73.9935 40.5 74.3335 40.08C74.6735 39.64 75.0135 39.2 75.3535 38.76C75.7135 38.32 76.0235 37.93 76.2835 37.59C76.1235 37.59 75.9135 37.6 75.6535 37.62C75.4135 37.64 75.1935 37.67 74.9935 37.71C74.7935 37.73 74.6835 37.74 74.6635 37.74C74.5635 37.74 74.5735 37.66 74.6935 37.5C74.8135 37.34 74.9735 37.18 75.1735 37.02C75.3735 36.86 75.5235 36.78 75.6235 36.78C75.6435 36.78 75.8035 36.79 76.1035 36.81C76.4035 36.81 76.6235 36.81 76.7635 36.81C77.1635 36.27 77.5535 35.65 77.9335 34.95C78.3335 34.25 78.7235 33.48 79.1035 32.64C79.2635 32.62 79.5335 32.51 79.9135 32.31C80.3135 32.09 80.6235 31.87 80.8435 31.65C80.9435 31.55 81.0235 31.5 81.0835 31.5C81.2035 31.5 81.2035 31.58 81.0835 31.74C80.9435 31.9 80.7035 32.24 80.3635 32.76C80.0235 33.26 79.6435 33.87 79.2235 34.59C78.8035 35.29 78.4035 36.03 78.0235 36.81H80.4535C80.6735 36.81 80.7835 36.84 80.7835 36.9C80.7835 36.98 80.6335 37.06 80.3335 37.14C79.9935 37.24 79.6335 37.3 79.2535 37.32C78.8935 37.34 78.5535 37.38 78.2335 37.44C77.9335 37.5 77.7135 37.63 77.5735 37.83C77.4535 37.97 77.2835 38.27 77.0635 38.73C76.8435 39.19 76.6035 39.72 76.3435 40.32C76.1035 40.9 75.8935 41.49 75.7135 42.09C75.5335 42.67 75.4235 43.16 75.3835 43.56V43.68C75.3835 43.84 75.4335 43.97 75.5335 44.07C75.6335 44.17 75.7335 44.22 75.8335 44.22C76.0935 44.22 76.4235 44.06 76.8235 43.74C77.2435 43.42 77.6735 43.04 78.1135 42.6C78.5535 42.14 78.9335 41.72 79.2535 41.34C79.3935 41.18 79.5135 41.03 79.6135 40.89C79.7335 40.75 79.8035 40.66 79.8235 40.62C79.8635 40.7 79.8835 40.76 79.8835 40.8C79.8835 40.92 79.8435 41.05 79.7635 41.19C79.7035 41.33 79.6335 41.45 79.5535 41.55C79.1735 42.05 78.7135 42.58 78.1735 43.14C77.6335 43.68 77.0535 44.14 76.4335 44.52C75.8335 44.9 75.2135 45.09 74.5735 45.09Z" fill="#3D813B"/>
</svg>
